<svg width="94.750000" height="14.250000" viewBox="0 0 94.75 14.25" fill="none" xmlns="http://www.w3.org/2000/svg" xmlns:xlink="http://www.w3.org/1999/xlink">
	<desc>
			Created with Pixso.
	</desc>
	<defs/>
	<g opacity="0.500000">
		<path id="watermark" d="M6.25 11.5L6.25 13.25L9.75 13.25L9.75 11.5L8 11.5L8 9.75L6.25 9.75L6.25 8L4.5 8L4.5 6.25L6.25 6.25L6.25 4.5L8 4.5L8 2.75L9.75 2.75L9.75 1L6.25 1L6.25 2.75L4.5 2.75L4.5 4.5L2.75 4.5L2.75 6.25L1 6.25L1 8L2.75 8L2.75 9.75L4.5 9.75L4.5 11.5L6.25 11.5ZM25.5 2.75L25.5 1L23.75 1L23.75 2.75L22 2.75L22 4.5L20.25 4.5L20.25 6.25L18.5 6.25L18.5 8L16.75 8L16.75 9.75L15 9.75L15 11.5L13.25 11.5L13.25 13.25L15 13.25L15 11.5L16.75 11.5L16.75 9.75L18.5 9.75L18.5 8L20.25 8L20.25 6.25L22 6.25L22 4.5L23.75 4.5L23.75 2.75L25.5 2.75ZM27.25 1L27.25 13.25L30.75 13.25L30.75 8L36 8L36 13.25L39.5 13.25L39.5 1L36 1L36 6.25L30.75 6.25L30.75 1L27.25 1ZM46.5 2.75L46.5 13.25L50 13.25L50 2.75L53.5 2.75L53.5 1L43 1L43 2.75L46.5 2.75ZM55.25 1L55.25 13.25L58.75 13.25L58.75 6.25L60.5 6.25L60.5 9.75L62.25 9.75L62.25 6.25L64 6.25L64 13.25L67.5 13.25L67.5 1L64 1L64 2.75L62.25 2.75L62.25 4.5L60.5 4.5L60.5 2.75L58.75 2.75L58.75 1L55.25 1ZM71 1L71 13.25L81.5 13.25L81.5 11.5L74.5 11.5L74.5 1L71 1ZM85 11.5L85 13.25L88.5 13.25L88.5 11.5L90.25 11.5L90.25 9.75L92 9.75L92 8L93.75 8L93.75 6.25L92 6.25L92 4.5L90.25 4.5L90.25 2.75L88.5 2.75L88.5 1L85 1L85 2.75L86.75 2.75L86.75 4.5L88.5 4.5L88.5 6.25L90.25 6.25L90.25 8L88.5 8L88.5 9.75L86.75 9.75L86.75 11.5L85 11.5Z" fill="#000000" fill-opacity="1.000000" fill-rule="evenodd"/>
		<path id="watermark" d="M6.25 13.25L6.25 11.5L4.5 11.5L4.5 9.75L2.75 9.75L2.75 8L1 8L1 6.25L2.75 6.25L2.75 4.5L4.5 4.5L4.5 2.75L6.25 2.75L6.25 1L9.75 1L9.75 2.75L8 2.75L8 4.5L6.25 4.5L6.25 6.25L4.5 6.25L4.5 8L6.25 8L6.25 9.75L8 9.75L8 11.5L9.75 11.5L9.75 13.25L6.25 13.25ZM25.5 1L25.5 2.75L23.75 2.75L23.75 1L25.5 1ZM22 2.75L23.75 2.75L23.75 4.5L22 4.5L22 2.75ZM20.25 4.5L22 4.5L22 6.25L20.25 6.25L20.25 4.5ZM18.5 6.25L20.25 6.25L20.25 8L18.5 8L18.5 6.25ZM16.75 8L18.5 8L18.5 9.75L16.75 9.75L16.75 8ZM15 9.75L16.75 9.75L16.75 11.5L15 11.5L15 9.75ZM13.25 11.5L15 11.5L15 13.25L13.25 13.25L13.25 11.5ZM27.25 13.25L27.25 1L30.75 1L30.75 6.25L36 6.25L36 1L39.5 1L39.5 13.25L36 13.25L36 8L30.75 8L30.75 13.25L27.25 13.25ZM46.5 13.25L46.5 2.75L43 2.75L43 1L53.5 1L53.5 2.75L50 2.75L50 13.25L46.5 13.25ZM55.25 13.25L55.25 1L58.75 1L58.75 2.75L60.5 2.75L60.5 4.5L62.25 4.5L62.25 2.75L64 2.75L64 1L67.5 1L67.5 13.25L64 13.25L64 6.25L62.25 6.25L62.25 9.75L60.5 9.75L60.5 6.25L58.75 6.25L58.75 13.25L55.25 13.25ZM71 13.25L71 1L74.5 1L74.5 11.5L81.5 11.5L81.5 13.25L71 13.25ZM85 13.25L85 11.5L86.75 11.5L86.75 9.75L88.5 9.75L88.5 8L90.25 8L90.25 6.25L88.5 6.25L88.5 4.5L86.75 4.5L86.75 2.75L85 2.75L85 1L88.5 1L88.5 2.75L90.25 2.75L90.25 4.5L92 4.5L92 6.25L93.75 6.25L93.75 8L92 8L92 9.75L90.25 9.75L90.25 11.5L88.5 11.5L88.5 13.25L85 13.25Z" stroke="#FFFFFF" stroke-opacity="1.000000" stroke-width="1.000000"/>
	</g>
</svg>
